<svg xmlns="http://www.w3.org/2000/svg" x="0px" y="0px"
width="34" height="34"
viewBox="0 0 192 192"
style=" fill:#000000;"><g fill="none" fill-rule="nonzero" stroke="none" stroke-width="1" stroke-linecap="butt" stroke-linejoin="miter" stroke-miterlimit="10" stroke-dasharray="" stroke-dashoffset="0" font-family="none" font-weight="none" font-size="none" text-anchor="none" style="mix-blend-mode: normal"><path d="M0,192v-192h192v192z" fill="none"></path><g id="Layer_1"><g><g fill="#8A99C0"><path d="M13.5,42v100.2c0,7.65 6.15,13.8 13.8,13.8h137.55c7.65,0 13.8,-6.15 13.8,-13.8v-100.2z"></path></g><g fill="#8A99C0"><path d="M16.5,49.65l69.15,65.7c5.85,5.55 14.85,5.55 20.7,0l69.15,-65.7c1.95,-1.8 3,-4.35 3,-6.9v0c0,-5.25 -4.35,-9.6 -9.6,-9.6h-145.8c-5.25,-0.15 -9.6,4.2 -9.6,9.45v0c0,2.7 1.05,5.25 3,7.05z"></path></g><g fill="#fff"><path d="M183,41.4c-0.6,-7.2 -6.75,-12.9 -14.1,-12.9h-145.8c-7.8,0 -14.1,6.3 -14.1,14.1c0,3.9 1.65,7.65 4.35,10.2l69.15,65.7c3.75,3.6 8.55,5.4 13.5,5.4c4.95,0 9.6,-1.8 13.5,-5.4l64.5,-61.35v85.05c0,5.1 -4.2,9.3 -9.3,9.3h-137.4c-5.1,0 -9.3,-4.2 -9.3,-9.3v-55.2c0,-2.55 -1.95,-4.5 -4.5,-4.5c-2.55,0 -4.5,1.95 -4.5,4.5v55.2c0,10.05 8.25,18.3 18.3,18.3h137.55c10.05,0 18.3,-8.25 18.3,-18.3v-100.2c-0.15,-0.15 -0.15,-0.45 -0.15,-0.6zM172.35,46.35l-69.15,65.7c-4.05,3.9 -10.35,3.9 -14.4,0l-69.15,-65.7c-1.05,-0.9 -1.65,-2.25 -1.65,-3.75c0,-2.85 2.25,-5.1 5.1,-5.1h145.8c2.85,0 5.1,2.25 5.1,5.1c0,1.35 -0.6,2.7 -1.65,3.75z"></path></g></g></g></g></svg>