<!-- <svg xmlns="http://www.w3.org/2000/svg" x="0px" y="0px"
width="26" height="26"
viewBox="0 0 192 192"
style=" fill:#000000;">
    <g fill="none" fill-rule="nonzero" stroke="none" stroke-width="1" stroke-linecap="butt" stroke-linejoin="miter" stroke-miterlimit="10" stroke-dasharray="" stroke-dashoffset="0" font-family="none" font-weight="none" font-size="none" text-anchor="none" style="mix-blend-mode: normal">
        <path d="M0,192v-192h192v192z" fill="none"></path>
        <g id="original-icon" fill="#ffffff">
            <g id="surface1">
                <path d="M55.73077,0c-30.69231,0 -55.73077,25.03846 -55.73077,55.73077v80.53846c0,30.69231 25.03846,55.73077 55.73077,55.73077h80.53846c30.69231,0 55.73077,-25.03846 55.73077,-55.73077v-80.53846c0,-30.69231 -25.03846,-55.73077 -55.73077,-55.73077zM55.73077,14.76923h80.53846c22.70192,0 40.96154,18.23077 40.96154,40.96154v80.53846c0,22.70192 -18.23077,40.96154 -40.96154,40.96154h-80.53846c-22.70192,0 -40.96154,-18.23077 -40.96154,-40.96154v-80.53846c0,-22.70192 18.23077,-40.96154 40.96154,-40.96154zM151.38462,29.53846c-6.11538,0 -11.07692,4.96154 -11.07692,11.07692c0,6.11538 4.96154,11.07692 11.07692,11.07692c6.11538,0 11.07692,-4.96154 11.07692,-11.07692c0,-6.11538 -4.96154,-11.07692 -11.07692,-11.07692zM96,44.30769c-28.47116,0 -51.69231,23.22115 -51.69231,51.69231c0,28.47116 23.22115,51.69231 51.69231,51.69231c28.47116,0 51.69231,-23.22115 51.69231,-51.69231c0,-28.47116 -23.22115,-51.69231 -51.69231,-51.69231zM96,59.07692c20.48077,0 36.92308,16.44231 36.92308,36.92308c0,20.48077 -16.4423,36.92308 -36.92308,36.92308c-20.48077,0 -36.92308,-16.4423 -36.92308,-36.92308c0,-20.48077 16.44231,-36.92308 36.92308,-36.92308z">
                </path>
            </g>
        </g>
    </g>
</svg> -->

<svg xmlns="http://www.w3.org/2000/svg" x="0px" y="0px"
width="32" height="32"
viewBox="0 0 192 192"
style=" fill:#000000; opacity: 0.5;"><g fill="none" fill-rule="nonzero" stroke="none" stroke-width="1" stroke-linecap="butt" stroke-linejoin="miter" stroke-miterlimit="10" stroke-dasharray="" stroke-dashoffset="0" font-family="none" font-weight="none" font-size="none" text-anchor="none" style="mix-blend-mode: normal"><path d="M0,192v-192h192v192z" fill="none"></path><g fill="#ffffff"><path d="M64,24c-22.088,0 -40,17.912 -40,40v64c0,22.088 17.912,40 40,40h64c22.088,0 40,-17.912 40,-40v-64c0,-22.088 -17.912,-40 -40,-40zM144,40c4.416,0 8,3.584 8,8c0,4.416 -3.584,8 -8,8c-4.416,0 -8,-3.584 -8,-8c0,-4.416 3.584,-8 8,-8zM96,56c22.088,0 40,17.912 40,40c0,22.088 -17.912,40 -40,40c-22.088,0 -40,-17.912 -40,-40c0,-22.088 17.912,-40 40,-40zM96,72c-13.25483,0 -24,10.74517 -24,24c0,13.25483 10.74517,24 24,24c13.25483,0 24,-10.74517 24,-24c0,-13.25483 -10.74517,-24 -24,-24z"></path></g></g></svg>